<svg width="170" height="32" viewBox="0 0 170 32" fill="none" xmlns="http://www.w3.org/2000/svg">
<path d="M13.5592 31C11.2359 31 9.01277 30.6177 6.89163 29.8542C4.77049 29.0907 2.80532 27.9168 1 26.3338L4.18153 22.667C5.64455 23.8893 7.12843 24.8272 8.63368 25.4788C10.1389 26.1323 11.823 26.4587 13.688 26.4587C15.3223 26.4587 16.6196 26.1184 17.5801 25.4378C18.5406 24.7573 19.0217 23.8752 19.0217 22.7919V22.708C19.0217 22.1812 18.9274 21.7151 18.7407 21.3124C18.554 20.9105 18.2113 20.5282 17.709 20.1664C17.2066 19.8056 16.5194 19.4728 15.6456 19.167C14.7698 18.8613 13.6304 18.5564 12.2253 18.2497C10.62 17.8898 9.19384 17.4796 7.94651 17.0208C6.69929 16.5622 5.65209 16.0074 4.80518 15.3539C3.96023 14.7022 3.3154 13.9032 2.8709 12.9587C2.42626 12.0143 2.20485 10.875 2.20485 9.54187V9.45876C2.20485 8.20869 2.46277 7.06275 2.9786 6.02144C3.49458 4.97907 4.20471 4.09061 5.10753 3.35403C6.01017 2.61839 7.09178 2.04226 8.3545 1.62545C9.61534 1.20879 10.9915 1 12.4832 1C14.6909 1 16.6773 1.3133 18.4404 1.9379C20.2036 2.56244 21.8588 3.47339 23.4083 4.66676L20.5693 8.54147C19.1929 7.5699 17.8303 6.82686 16.4829 6.31223C15.1356 5.79949 13.7728 5.54218 12.3965 5.54218C10.8491 5.54218 9.64413 5.87499 8.78379 6.54165C7.92344 7.20827 7.4942 8.02781 7.4942 9.00012V9.08305C7.4942 9.63965 7.59419 10.132 7.79434 10.5627C7.9945 10.9934 8.36798 11.3822 8.91278 11.7291C9.45755 12.0768 10.1889 12.403 11.107 12.7088C12.0251 13.0147 13.2146 13.3335 14.6775 13.6664C16.254 14.0561 17.6455 14.4869 18.8486 14.9585C20.0533 15.4313 21.0639 16.0074 21.8819 16.688C22.698 17.3687 23.3063 18.1601 23.7086 19.0627C24.1109 19.9651 24.3111 21.014 24.3111 22.2083V22.2912C24.3111 23.6534 24.0454 24.8747 23.516 25.9581C22.9848 27.0414 22.2477 27.9579 21.3007 28.7085C20.3536 29.4579 19.2219 30.0277 17.9034 30.4164C16.583 30.8051 15.1356 31 13.5592 31Z" fill="#F58634" stroke="#F58634" stroke-width="0.0270857" stroke-miterlimit="10"/>
<path d="M53.0865 19.0004L47.8818 7.3334L42.7197 19.0004H53.0865ZM45.5163 1.20898H50.4187L63.6671 30.5835H58.0754L55.021 23.5416H40.7852L37.6883 30.5835H32.2681L45.5163 1.20898Z" fill="#F58634" stroke="#F58634" stroke-width="0.0270857" stroke-miterlimit="10"/>
<path d="M128.353 19.0004L123.149 7.3334L117.986 19.0004H128.353ZM120.783 1.20898H125.686L138.934 30.5835H133.342L130.288 23.5416H116.052L112.955 30.5835H107.535L120.783 1.20898Z" fill="#F58634" stroke="#F58634" stroke-width="0.0270857" stroke-miterlimit="10"/>
<path d="M158.932 31C156.609 31 154.386 30.6177 152.265 29.8542C150.144 29.0907 148.179 27.9168 146.373 26.3338L149.555 22.667C151.018 23.8893 152.502 24.8272 154.007 25.4788C155.512 26.1323 157.196 26.4587 159.061 26.4587C160.695 26.4587 161.993 26.1184 162.953 25.4378C163.914 24.7573 164.395 23.8752 164.395 22.7919V22.708C164.395 22.1812 164.3 21.7151 164.114 21.3124C163.927 20.9105 163.584 20.5282 163.082 20.1664C162.58 19.8056 161.893 19.4728 161.019 19.167C160.143 18.8613 159.004 18.5564 157.598 18.2497C155.993 17.8898 154.567 17.4796 153.32 17.0208C152.072 16.5622 151.025 16.0074 150.178 15.3539C149.333 14.7022 148.689 13.9032 148.244 12.9587C147.799 12.0143 147.578 10.875 147.578 9.54187V9.45876C147.578 8.20869 147.836 7.06275 148.352 6.02144C148.868 4.97907 149.578 4.09061 150.481 3.35403C151.383 2.61839 152.465 2.04226 153.728 1.62545C154.988 1.20879 156.365 1 157.856 1C160.064 1 162.05 1.3133 163.813 1.9379C165.577 2.56244 167.232 3.47339 168.781 4.66676L165.942 8.54147C164.566 7.5699 163.203 6.82686 161.856 6.31223C160.509 5.79949 159.146 5.54218 157.77 5.54218C156.222 5.54218 155.017 5.87499 154.157 6.54165C153.296 7.20827 152.867 8.02781 152.867 9.00012V9.08305C152.867 9.63965 152.967 10.132 153.168 10.5627C153.368 10.9934 153.741 11.3822 154.286 11.7291C154.831 12.0768 155.562 12.403 156.48 12.7088C157.398 13.0147 158.588 13.3335 160.051 13.6664C161.627 14.0561 163.019 14.4869 164.222 14.9585C165.427 15.4313 166.437 16.0074 167.255 16.688C168.071 17.3687 168.679 18.1601 169.082 19.0627C169.484 19.9651 169.684 21.014 169.684 22.2083V22.2912C169.684 23.6534 169.419 24.8747 168.889 25.9581C168.358 27.0414 167.621 27.9579 166.674 28.7085C165.727 29.4579 164.595 30.0277 163.276 30.4164C161.956 30.8051 160.509 31 158.932 31Z" fill="#F58634" stroke="#F58634" stroke-width="0.0270857" stroke-miterlimit="10"/>
<path d="M82.6039 13.5412H78.4185V1.4165H73.1274V30.5831H78.4185V18.2914H82.6039V13.5412Z" fill="#F58634" stroke="#F58634" stroke-width="0.0270857" stroke-miterlimit="10"/>
<path d="M92.7833 1.4165V13.5412H88.5962V18.2914H92.7833V30.583H98.0726V1.4165H92.7833Z" fill="#F58634" stroke="#F58634" stroke-width="0.0270857" stroke-miterlimit="10"/>
</svg>
