<svg width="37" height="33" viewBox="0 0 37 33" fill="none" xmlns="http://www.w3.org/2000/svg">
<path d="M3.55138 32.2774C2.6431 32.2774 1.86555 31.954 1.21875 31.3072C0.571939 30.6604 0.248535 29.8829 0.248535 28.9746V7.50608H3.55138V28.9746H31.6256V32.2774H3.55138ZM10.1571 25.6717C9.24879 25.6717 8.47124 25.3483 7.82444 24.7015C7.17763 24.0547 6.85423 23.2772 6.85423 22.3689V4.20324C6.85423 3.29495 7.17763 2.51741 7.82444 1.8706C8.47124 1.22379 9.24879 0.900391 10.1571 0.900391H18.4142L21.717 4.20324H33.277C34.1853 4.20324 34.9628 4.52664 35.6096 5.17345C36.2564 5.82025 36.5798 6.5978 36.5798 7.50608V22.3689C36.5798 23.2772 36.2564 24.0547 35.6096 24.7015C34.9628 25.3483 34.1853 25.6717 33.277 25.6717H10.1571ZM10.1571 22.3689H33.277V7.50608H20.3546L17.0518 4.20324H10.1571V22.3689Z" fill="#101010" fill-opacity="0.8"/>
</svg>
