<svg width="50" height="37" viewBox="0 0 50 37" fill="none" xmlns="http://www.w3.org/2000/svg">
<path d="M10.6454 36.1668L7.55371 33.0752L28.7537 11.8752H23.012V16.2918H18.5954V7.4585H31.4589C32.0478 7.4585 32.6183 7.56891 33.1704 7.78975C33.7225 8.01058 34.2009 8.32343 34.6058 8.72829L41.2308 15.2981C42.2245 16.2918 43.4391 17.0647 44.8745 17.6168C46.31 18.1689 47.8558 18.4634 49.512 18.5002V22.9168C47.2301 22.9168 45.1598 22.5672 43.3011 21.8679C41.4424 21.1686 39.7954 20.1196 38.36 18.721L36.1516 16.4022L31.2933 21.2606L36.262 26.2293L21.7975 34.5658L19.5891 30.7564L29.085 25.2908L25.3308 21.5366L10.6454 36.1668ZM5.34538 20.7085V16.2918H16.387V20.7085H5.34538ZM0.928711 14.0835V9.66683H11.9704V14.0835H0.928711ZM41.7277 9.66683C40.5131 9.66683 39.4641 9.23436 38.5808 8.36943C37.6975 7.5045 37.2558 6.46475 37.2558 5.25016C37.2558 4.03558 37.6975 2.99582 38.5808 2.13089C39.4641 1.26596 40.5131 0.833496 41.7277 0.833496C42.9423 0.833496 43.9912 1.26596 44.8745 2.13089C45.7579 2.99582 46.1995 4.03558 46.1995 5.25016C46.1995 6.46475 45.7579 7.5045 44.8745 8.36943C43.9912 9.23436 42.9423 9.66683 41.7277 9.66683ZM5.34538 7.4585V3.04183H16.387V7.4585H5.34538Z" fill="#929292" fill-opacity="0.8"/>
</svg>
