<svg width="35" height="45" viewBox="0 0 35 45" fill="none" xmlns="http://www.w3.org/2000/svg">
<path d="M17.5 44.5834C16.2854 44.5834 15.2457 44.1509 14.3807 43.286C13.5158 42.4211 13.0833 41.3813 13.0833 40.1667H21.9167C21.9167 41.3813 21.4842 42.4211 20.6193 43.286C19.7543 44.1509 18.7146 44.5834 17.5 44.5834ZM8.66667 37.9584V33.5417H26.3333V37.9584H8.66667ZM9.21875 31.3334C6.67917 29.8244 4.66406 27.8001 3.17344 25.2605C1.68281 22.7209 0.9375 19.9605 0.9375 16.9792C0.9375 12.3786 2.54774 8.46796 5.76823 5.24748C8.98872 2.02699 12.8993 0.416748 17.5 0.416748C22.1007 0.416748 26.0113 2.02699 29.2318 5.24748C32.4523 8.46796 34.0625 12.3786 34.0625 16.9792C34.0625 19.9605 33.3172 22.7209 31.8266 25.2605C30.3359 27.8001 28.3208 29.8244 25.7812 31.3334H9.21875ZM10.5437 26.9167H24.4563C26.1125 25.739 27.3915 24.2852 28.2932 22.5553C29.195 20.8254 29.6458 18.9667 29.6458 16.9792C29.6458 13.5931 28.4681 10.7223 26.1125 8.36675C23.7569 6.01119 20.8861 4.83341 17.5 4.83341C14.1139 4.83341 11.2431 6.01119 8.8875 8.36675C6.53194 10.7223 5.35417 13.5931 5.35417 16.9792C5.35417 18.9667 5.80503 20.8254 6.70677 22.5553C7.60851 24.2852 8.8875 25.739 10.5437 26.9167Z" fill="#929292" fill-opacity="0.8"/>
</svg>
