<svg width="38" height="46" viewBox="0 0 38 46" fill="none" xmlns="http://www.w3.org/2000/svg">
<path d="M17.9829 9.63622C16.7596 9.63622 15.7124 9.20067 14.8413 8.32955C13.9702 7.45844 13.5347 6.41125 13.5347 5.18799C13.5347 3.96472 13.9702 2.91753 14.8413 2.04642C15.7124 1.1753 16.7596 0.739746 17.9829 0.739746C19.2062 0.739746 20.2534 1.1753 21.1245 2.04642C21.9956 2.91753 22.4311 3.96472 22.4311 5.18799C22.4311 6.41125 21.9956 7.45844 21.1245 8.32955C20.2534 9.20067 19.2062 9.63622 17.9829 9.63622ZM11.3105 45.2221V16.3086H-2.03418V11.8603H38V16.3086H24.6553V45.2221H20.207V31.8774H15.7588V45.2221H11.3105Z" fill="#BDBDBD"/>
</svg>
