<svg width="41" height="42" viewBox="0 0 41 42" fill="none" xmlns="http://www.w3.org/2000/svg">
<path d="M2.77865 41.375V34.75H9.62448L3.99323 16.3104C2.99948 15.7583 2.18056 14.9486 1.53646 13.8812C0.892361 12.8139 0.570312 11.6729 0.570312 10.4583C0.570312 8.61802 1.21441 7.05379 2.5026 5.76559C3.7908 4.4774 5.35504 3.8333 7.19531 3.8333C8.63073 3.8333 9.90972 4.24736 11.0323 5.07549C12.1549 5.90361 12.937 6.96177 13.3786 8.24997H20.4453V6.04164C20.4453 5.41594 20.6569 4.89146 21.0802 4.4682C21.5035 4.04493 22.028 3.8333 22.6536 3.8333C22.9849 3.8333 23.3069 3.90691 23.6198 4.05414C23.9326 4.20136 24.1995 4.42219 24.4203 4.71664L28.1745 1.1833C28.5057 0.852053 28.9014 0.640421 29.3615 0.548407C29.8215 0.456393 30.2724 0.520803 30.7141 0.741636L39.3266 4.71664C39.7682 4.93747 40.0719 5.25952 40.2375 5.68278C40.4031 6.10605 40.3939 6.52011 40.2099 6.92497C39.9891 7.36664 39.667 7.65188 39.2438 7.7807C38.8205 7.90952 38.4064 7.88191 38.0016 7.69789L30.0516 4.05414L24.862 8.91247V12.0041L30.0516 16.7521L38.0016 13.1083C38.4064 12.9243 38.8297 12.9059 39.2714 13.0531C39.713 13.2003 40.0259 13.4764 40.2099 13.8812C40.4307 14.3229 40.4491 14.7461 40.2651 15.151C40.0811 15.5559 39.7682 15.8687 39.3266 16.0896L30.7141 20.175C30.2724 20.3958 29.8215 20.4602 29.3615 20.3682C28.9014 20.2762 28.5057 20.0646 28.1745 19.7333L24.4203 16.2C24.1995 16.4208 23.9326 16.6232 23.6198 16.8073C23.3069 16.9913 22.9849 17.0833 22.6536 17.0833C22.028 17.0833 21.5035 16.8717 21.0802 16.4484C20.6569 16.0251 20.4453 15.5007 20.4453 14.875V12.6666H13.3786C13.2682 12.9611 13.1486 13.2371 13.0198 13.4948C12.891 13.7524 12.7161 14.0284 12.4953 14.3229L23.537 34.75H31.487V41.375H2.77865ZM7.19531 12.6666C7.82101 12.6666 8.34549 12.455 8.76875 12.0317C9.19201 11.6085 9.40365 11.084 9.40365 10.4583C9.40365 9.83261 9.19201 9.30813 8.76875 8.88486C8.34549 8.4616 7.82101 8.24997 7.19531 8.24997C6.56962 8.24997 6.04514 8.4616 5.62188 8.88486C5.19861 9.30813 4.98698 9.83261 4.98698 10.4583C4.98698 11.084 5.19861 11.6085 5.62188 12.0317C6.04514 12.455 6.56962 12.6666 7.19531 12.6666ZM14.1516 34.75H18.4578L8.96198 17.0833H8.74115L14.1516 34.75Z" fill="#929292" fill-opacity="0.8"/>
</svg>
