<svg width="50" height="45" viewBox="0 0 50 45" fill="none" xmlns="http://www.w3.org/2000/svg">
<path d="M24.9449 40.1665C25.0922 40.1665 25.2394 40.1297 25.3866 40.0561C25.5338 39.9825 25.6442 39.9089 25.7179 39.8353L43.8262 21.7269C44.2679 21.2853 44.5899 20.7884 44.7923 20.2363C44.9948 19.6842 45.096 19.1321 45.096 18.58C45.096 17.9912 44.9948 17.4299 44.7923 16.8962C44.5899 16.3625 44.2679 15.8932 43.8262 15.4884L34.4408 6.10296C34.0359 5.6613 33.5666 5.33925 33.033 5.13682C32.4993 4.93439 31.938 4.83317 31.3491 4.83317C30.797 4.83317 30.2449 4.93439 29.6929 5.13682C29.1408 5.33925 28.6439 5.6613 28.2022 6.10296L27.5949 6.71025L31.6804 10.8509C32.2324 11.3662 32.6373 11.955 32.8949 12.6175C33.1526 13.28 33.2814 13.9794 33.2814 14.7155C33.2814 16.2613 32.7569 17.5587 31.708 18.6077C30.659 19.6566 29.3616 20.1811 27.8158 20.1811C27.0797 20.1811 26.3712 20.0523 25.6902 19.7946C25.0093 19.537 24.4113 19.1505 23.896 18.6353L19.7554 14.5498L10.0939 24.2113C9.98348 24.3217 9.90067 24.4413 9.84546 24.5702C9.79025 24.699 9.76264 24.837 9.76264 24.9842C9.76264 25.2787 9.87306 25.5455 10.0939 25.7847C10.3147 26.024 10.5724 26.1436 10.8668 26.1436C11.014 26.1436 11.1613 26.1068 11.3085 26.0332C11.4557 25.9596 11.5661 25.886 11.6397 25.8123L19.1481 18.304L22.2397 21.3957L14.7866 28.904C14.6762 29.0144 14.5934 29.134 14.5382 29.2629C14.483 29.3917 14.4554 29.5297 14.4554 29.6769C14.4554 29.9714 14.5658 30.229 14.7866 30.4498C15.0074 30.6707 15.2651 30.7811 15.5595 30.7811C15.7067 30.7811 15.854 30.7443 16.0012 30.6707C16.1484 30.5971 16.2588 30.5235 16.3324 30.4498L23.8408 22.9967L26.9324 26.0884L19.4793 33.5967C19.3689 33.6703 19.2861 33.7807 19.2309 33.928C19.1757 34.0752 19.1481 34.2224 19.1481 34.3696C19.1481 34.6641 19.2585 34.9217 19.4793 35.1425C19.7001 35.3634 19.9578 35.4738 20.2522 35.4738C20.3995 35.4738 20.5375 35.4462 20.6663 35.391C20.7951 35.3358 20.9147 35.253 21.0251 35.1425L28.5335 27.6894L31.6251 30.7811L24.1168 38.2894C24.0064 38.3998 23.9236 38.5195 23.8684 38.6483C23.8132 38.7771 23.7856 38.9151 23.7856 39.0623C23.7856 39.3568 23.9052 39.6144 24.1444 39.8353C24.3837 40.0561 24.6505 40.1665 24.9449 40.1665ZM24.8897 44.5832C23.5279 44.5832 22.3225 44.1323 21.2736 43.2306C20.2246 42.3288 19.6081 41.1971 19.4241 39.8353C18.1727 39.6512 17.1238 39.136 16.2772 38.2894C15.4307 37.4429 14.9154 36.3939 14.7314 35.1425C13.48 34.9585 12.4402 34.434 11.6121 33.5691C10.784 32.7042 10.2779 31.6644 10.0939 30.4498C8.69528 30.2658 7.55431 29.6585 6.67098 28.628C5.78764 27.5974 5.34598 26.3828 5.34598 24.9842C5.34598 24.2481 5.484 23.5396 5.76004 22.8587C6.03608 22.1778 6.43174 21.5797 6.94702 21.0644L19.7554 8.3113L26.9876 15.5436C27.0613 15.654 27.1717 15.7368 27.3189 15.792C27.4661 15.8472 27.6133 15.8748 27.7606 15.8748C28.0918 15.8748 28.3679 15.7736 28.5887 15.5712C28.8095 15.3688 28.9199 15.1019 28.9199 14.7707C28.9199 14.6234 28.8923 14.4762 28.8371 14.329C28.7819 14.1818 28.6991 14.0714 28.5887 13.9978L20.6939 6.10296C20.289 5.6613 19.8198 5.33925 19.2861 5.13682C18.7524 4.93439 18.1911 4.83317 17.6022 4.83317C17.0501 4.83317 16.4981 4.93439 15.946 5.13682C15.3939 5.33925 14.897 5.6613 14.4554 6.10296L6.67098 13.9425C6.33973 14.2738 6.06369 14.6603 5.84285 15.1019C5.62202 15.5436 5.4748 15.9853 5.40119 16.4269C5.32757 16.8686 5.32757 17.3195 5.40119 17.7795C5.4748 18.2396 5.62202 18.6721 5.84285 19.0769L2.64077 22.279C2.01507 21.4325 1.555 20.5031 1.26056 19.491C0.966115 18.4788 0.855699 17.4575 0.92931 16.4269C1.00292 15.3964 1.26056 14.3934 1.70223 13.4181C2.14389 12.4427 2.75119 11.5686 3.5241 10.7957L11.3085 3.0113C12.1918 2.16477 13.1764 1.52067 14.2621 1.079C15.3479 0.637337 16.4613 0.416504 17.6022 0.416504C18.7432 0.416504 19.8566 0.637337 20.9423 1.079C22.0281 1.52067 22.9942 2.16477 23.8408 3.0113L24.4481 3.61859L25.0554 3.0113C25.9387 2.16477 26.9232 1.52067 28.009 1.079C29.0948 0.637337 30.2081 0.416504 31.3491 0.416504C32.4901 0.416504 33.6034 0.637337 34.6892 1.079C35.775 1.52067 36.7411 2.16477 37.5876 3.0113L46.9179 12.3415C47.7644 13.188 48.4085 14.1634 48.8501 15.2675C49.2918 16.3717 49.5126 17.4943 49.5126 18.6353C49.5126 19.7762 49.2918 20.8896 48.8501 21.9754C48.4085 23.0611 47.7644 24.0273 46.9179 24.8738L28.8095 42.9269C28.2942 43.4422 27.6962 43.8471 27.0152 44.1415C26.3343 44.436 25.6258 44.5832 24.8897 44.5832Z" fill="#929292" fill-opacity="0.8"/>
</svg>
